<svg width="173" height="61" viewBox="0 0 173 61" fill="none" xmlns="http://www.w3.org/2000/svg">
<path d="M69.1879 38.5732C68.9746 38.0612 68.6866 37.4105 68.3239 36.6212C67.9826 35.8318 67.6092 34.9785 67.2039 34.0612C66.7986 33.1438 66.3612 32.2052 65.8919 31.2452C65.4439 30.2638 65.0172 29.3465 64.6119 28.4932C64.2066 27.6185 63.8226 26.8398 63.4599 26.1572C63.1186 25.4745 62.8412 24.9518 62.6279 24.5892C62.3932 27.1065 62.2012 29.8372 62.0519 32.7812C61.9026 35.7038 61.7746 38.6585 61.6679 41.6452H58.6279C58.7132 39.7252 58.8092 37.7945 58.9159 35.8532C59.0226 33.8905 59.1399 31.9705 59.2679 30.0932C59.4172 28.1945 59.5666 26.3492 59.7159 24.5572C59.8866 22.7652 60.0679 21.0692 60.2599 19.4692H62.9799C63.5559 20.4078 64.1746 21.5172 64.8359 22.7972C65.4972 24.0772 66.1586 25.4212 66.8199 26.8292C67.4812 28.2158 68.1212 29.6132 68.7399 31.0212C69.3586 32.4078 69.9239 33.6772 70.4359 34.8292C70.9479 33.6772 71.5132 32.4078 72.1319 31.0212C72.7506 29.6132 73.3906 28.2158 74.0519 26.8292C74.7132 25.4212 75.3746 24.0772 76.0359 22.7972C76.6972 21.5172 77.3159 20.4078 77.8919 19.4692H80.6119C81.3372 26.6158 81.8812 34.0078 82.2439 41.6452H79.2039C79.0972 38.6585 78.9692 35.7038 78.8199 32.7812C78.6706 29.8372 78.4786 27.1065 78.2439 24.5892C78.0306 24.9518 77.7426 25.4745 77.3799 26.1572C77.0386 26.8398 76.6652 27.6185 76.2599 28.4932C75.8546 29.3465 75.4172 30.2638 74.9479 31.2452C74.4999 32.2052 74.0732 33.1438 73.6679 34.0612C73.2626 34.9785 72.8786 35.8318 72.5159 36.6212C72.1746 37.4105 71.8972 38.0612 71.6839 38.5732H69.1879ZM84.9669 44.7492C85.2016 44.8558 85.5002 44.9518 85.8629 45.0372C86.2469 45.1438 86.6202 45.1972 86.9829 45.1972C88.1562 45.1972 89.0736 44.9305 89.7349 44.3972C90.3962 43.8852 90.9936 43.0425 91.5269 41.8692C90.1829 39.3092 88.9242 36.5998 87.7509 33.7412C86.5989 30.8612 85.6389 27.9492 84.8709 25.0052H88.0709C88.3056 25.9652 88.5829 26.9998 88.9029 28.1092C89.2442 29.2185 89.6176 30.3598 90.0229 31.5332C90.4282 32.7065 90.8656 33.8798 91.3349 35.0532C91.8042 36.2265 92.2949 37.3572 92.8069 38.4452C93.6176 36.2052 94.3216 33.9865 94.9189 31.7892C95.5162 29.5918 96.0816 27.3305 96.6149 25.0052H99.6869C98.9189 28.1412 98.0656 31.1598 97.1269 34.0612C96.1882 36.9412 95.1749 39.6398 94.0869 42.1572C93.6602 43.1172 93.2122 43.9385 92.7429 44.6212C92.2949 45.3252 91.7936 45.9012 91.2389 46.3492C90.6842 46.7972 90.0549 47.1278 89.3509 47.3412C88.6682 47.5545 87.8896 47.6612 87.0149 47.6612C86.7802 47.6612 86.5349 47.6398 86.2789 47.5972C86.0229 47.5758 85.7669 47.5332 85.5109 47.4692C85.2762 47.4265 85.0522 47.3732 84.8389 47.3092C84.6469 47.2452 84.5082 47.1918 84.4229 47.1492L84.9669 44.7492ZM108.905 19.2452C112.02 19.2452 114.409 19.8425 116.073 21.0372C117.758 22.2105 118.601 23.9705 118.601 26.3172C118.601 27.5972 118.366 28.6958 117.897 29.6132C117.449 30.5092 116.788 31.2452 115.913 31.8212C115.06 32.3758 114.014 32.7812 112.777 33.0372C111.54 33.2932 110.142 33.4212 108.585 33.4212H106.121V41.6452H103.017V19.7892C103.892 19.5758 104.862 19.4372 105.929 19.3732C107.017 19.2878 108.009 19.2452 108.905 19.2452ZM109.161 21.9652C107.838 21.9652 106.825 21.9972 106.121 22.0612V30.7652H108.457C109.524 30.7652 110.484 30.7012 111.337 30.5732C112.19 30.4238 112.905 30.1892 113.481 29.8692C114.078 29.5278 114.537 29.0692 114.857 28.4932C115.177 27.9172 115.337 27.1812 115.337 26.2852C115.337 25.4318 115.166 24.7278 114.825 24.1732C114.505 23.6185 114.057 23.1812 113.481 22.8612C112.926 22.5198 112.276 22.2852 111.529 22.1572C110.782 22.0292 109.993 21.9652 109.161 21.9652ZM132.022 42.1252C130.465 42.1252 129.046 41.8692 127.766 41.3572C126.486 40.8452 125.387 40.0985 124.47 39.1172C123.553 38.1358 122.838 36.9305 122.326 35.5012C121.835 34.0505 121.59 32.3972 121.59 30.5412C121.59 28.6852 121.867 27.0425 122.422 25.6132C122.998 24.1625 123.766 22.9465 124.726 21.9652C125.686 20.9838 126.806 20.2372 128.086 19.7252C129.366 19.2132 130.731 18.9572 132.182 18.9572C133.099 18.9572 133.921 19.0212 134.646 19.1492C135.393 19.2772 136.033 19.4265 136.566 19.5972C137.121 19.7678 137.569 19.9385 137.91 20.1092C138.251 20.2798 138.486 20.4078 138.614 20.4932L137.718 23.0532C137.526 22.9252 137.249 22.7865 136.886 22.6372C136.523 22.4878 136.107 22.3385 135.638 22.1892C135.19 22.0398 134.689 21.9225 134.134 21.8372C133.601 21.7305 133.057 21.6772 132.502 21.6772C131.329 21.6772 130.273 21.8798 129.334 22.2852C128.395 22.6905 127.595 23.2772 126.934 24.0452C126.273 24.8132 125.761 25.7518 125.398 26.8612C125.057 27.9492 124.886 29.1758 124.886 30.5412C124.886 31.8638 125.035 33.0692 125.334 34.1572C125.654 35.2452 126.123 36.1838 126.742 36.9732C127.361 37.7412 128.129 38.3385 129.046 38.7652C129.985 39.1918 131.073 39.4052 132.31 39.4052C133.739 39.4052 134.923 39.2558 135.862 38.9572C136.801 38.6585 137.505 38.3918 137.974 38.1572L138.774 40.7172C138.625 40.8238 138.358 40.9625 137.974 41.1332C137.59 41.2825 137.11 41.4318 136.534 41.5812C135.958 41.7305 135.286 41.8585 134.518 41.9652C133.75 42.0718 132.918 42.1252 132.022 42.1252Z" fill="black"/>
<path d="M30.9613 8.94567V1H1V51.3226H30.9613V44.2598M17.9781 18.657H4.99484V22.1885H17.9781M4.99484 28.3684H17.9781" stroke="black"/>
<path d="M43.419 53.2581H54.5577V42.4387H18.7549V36.6129M60.9226 11.6452H18.7549V36.6129M18.7549 36.6129H54.5577" stroke="black"/>
</svg>
